<svg width="181" height="167" viewBox="0 0 181 167" fill="none" xmlns="http://www.w3.org/2000/svg">
<g clip-path="url(#clip0)">
<path d="M132.094 0.75125C120.688 0.685854 111.393 8.47187 111.337 18.1314C111.304 24.0014 114.729 29.2225 119.986 32.4106C119.646 33.4861 119.007 34.7457 117.627 35.6666C117.627 35.6666 121.489 36.0231 124.396 34.4793C126.732 35.2729 129.218 35.733 131.893 35.7484C143.299 35.8138 152.595 28.0278 152.65 18.3683C152.706 8.70875 143.5 0.816646 132.094 0.75125Z" fill="#EEF0F1"/>
<path d="M143.744 29.426C143.744 29.426 138.701 27.688 137.032 27.084C135.846 26.6314 134.885 25.8085 134.892 24.5453L134.894 24.2481L134.297 24.6534C133.476 25.2431 132.546 25.4978 131.58 25.4923C130.651 25.487 129.687 25.1842 128.873 24.6223L128.281 24.2102L128.279 24.5074C128.272 25.7706 127.301 26.6195 126.11 27.0214C124.434 27.6062 119.372 29.2862 119.372 29.2862C116.803 30.1632 115.081 32.5683 115.065 35.2804L115.06 36.0977L131.519 36.1921L147.977 36.2864L147.982 35.4691C148.035 32.7201 146.302 30.2952 143.744 29.426Z" fill="#F3BDA6"/>
<path d="M143.744 29.4263C143.744 29.4263 138.701 27.6883 137.033 27.0843C137.033 27.0843 136.995 27.0841 136.996 27.0469L131.593 29.8024L126.222 26.9851C126.222 26.9851 126.184 26.9849 126.184 27.0221C124.509 27.6069 119.447 29.2869 119.447 29.2869C116.878 30.1639 115.155 32.569 115.14 35.2811L115.135 36.0984L131.593 36.1928L148.052 36.2871L148.056 35.4698C148.035 32.7203 146.303 30.2955 143.744 29.4263Z" fill="#FFE102"/>
<path d="M134.334 24.6547L135.266 23.9913L135.789 23.6227C138.101 22.0013 139.491 19.3342 139.508 16.5107L139.551 8.96881C139.568 5.92235 137.13 3.45627 134.084 3.4388L129.477 3.41239C126.431 3.39492 123.964 5.83289 123.947 8.87935L123.904 16.4583C123.887 19.2819 125.247 21.9647 127.541 23.6126L128.392 24.2119L128.984 24.624C130.538 25.7847 132.73 25.7972 134.334 24.6547Z" fill="#F3BDA6"/>
<path d="M124.14 14.1193C124.367 13.4518 124.853 12.8973 125.228 12.3421C126.315 10.6765 127.181 8.67518 127.192 6.59467C126.992 9.08279 129.735 10.2874 130.625 10.6269C132.107 11.1927 133.706 10.9418 135.266 11.0622C136.64 11.1444 137.865 11.3372 138.604 12.1216C139.306 12.8687 139.405 14.987 139.478 15.136L139.514 8.96881C139.531 5.92236 137.093 3.45627 134.047 3.4388L129.44 3.41239C126.393 3.39492 123.927 5.83289 123.91 8.87935L123.873 15.3438C123.949 14.9355 124.026 14.5273 124.14 14.1193Z" fill="#561C12"/>
<path opacity="0.6" d="M134.328 25.8421L135.037 25.3261C134.927 25.0654 134.891 24.8051 134.893 24.5079L134.894 24.2106L134.298 24.6159C133.477 25.2057 132.547 25.4604 131.581 25.4549C130.652 25.4495 129.688 25.1468 128.874 24.5848L128.281 24.1727L128.28 24.4699C128.278 24.7672 128.239 25.027 128.126 25.2864L128.274 25.3987L128.866 25.8108C130.532 26.9721 132.724 26.9847 134.328 25.8421Z" fill="#F3BDA6"/>
<path d="M122.923 12.663C122.364 12.9942 122.1 13.6614 122.282 14.2941L122.938 16.4899C123.011 16.7875 123.27 17.0119 123.566 17.1251C123.715 17.1631 123.864 17.0525 123.865 16.9039L123.886 13.2258C123.888 12.7429 123.37 12.4055 122.923 12.663Z" fill="#F3BDA6"/>
<path opacity="0.6" d="M123.184 12.5895C123.184 12.5895 123.589 13.1862 123.603 17.1246C123.752 17.1626 123.901 17.052 123.902 16.9033L123.923 13.2253C123.888 12.8164 123.518 12.5542 123.184 12.5895Z" fill="#F3BDA6"/>
<path d="M140.458 12.7622C141.013 13.0998 141.269 13.77 141.08 14.4006L140.399 16.5887C140.323 16.8855 140.061 17.1069 139.763 17.2166C139.614 17.2529 139.467 17.1406 139.467 16.992L139.488 13.314C139.528 12.8312 140.05 12.4998 140.458 12.7622Z" fill="#F3BDA6"/>
<path opacity="0.6" d="M140.235 12.6875C140.235 12.6875 139.823 13.2796 139.763 17.2174C139.615 17.2537 139.467 17.1414 139.467 16.9928L139.489 13.3148C139.528 12.9063 139.864 12.6482 140.235 12.6875Z" fill="#F3BDA6"/>
<path d="M128.782 14.6647C128.785 14.1445 128.342 13.696 127.822 13.693C127.301 13.6901 126.853 14.1334 126.85 14.6536C126.847 15.1738 127.29 15.6222 127.81 15.6252C128.331 15.6282 128.779 15.222 128.782 14.6647Z" fill="#251011"/>
<path d="M128.149 14.5884C128.313 14.5893 128.447 14.457 128.448 14.2929C128.449 14.1287 128.317 13.9948 128.153 13.9939C127.989 13.993 127.855 14.1253 127.854 14.2894C127.853 14.4536 127.985 14.5875 128.149 14.5884Z" fill="white"/>
<path opacity="0.6" d="M130.77 17.5384L130.289 17.2012C130.289 17.2012 130.92 17.3534 131.663 17.3577C132.369 17.3617 133.039 17.2169 133.039 17.2169L132.554 17.5486C132.031 17.9172 131.325 17.9131 130.77 17.5384Z" fill="#F3BDA6"/>
<path d="M134.813 18.861L134.664 18.8602L134.367 18.8956C132.657 19.1087 130.91 19.0987 129.203 18.866L128.906 18.8272L128.757 18.8263C128.497 18.7877 128.273 19.0464 128.346 19.3069C128.345 19.3441 128.345 19.3441 128.382 19.3814C128.382 19.4186 128.419 19.4188 128.419 19.456C128.419 19.4931 128.419 19.4931 128.456 19.5305C128.786 20.3497 129.45 21.0223 130.34 21.3618C130.451 21.3996 130.563 21.4374 130.674 21.4752L130.711 21.4754C130.859 21.5134 131.008 21.5514 131.156 21.5894C131.193 21.5896 131.231 21.5898 131.267 21.6272C131.416 21.6652 131.602 21.6662 131.75 21.6671C131.899 21.668 132.085 21.669 132.233 21.6327C132.271 21.6329 132.308 21.6331 132.345 21.6334C132.494 21.5971 132.642 21.5979 132.791 21.5245L132.828 21.5247C132.94 21.4882 133.052 21.4516 133.164 21.4151C134.02 21.0485 134.692 20.4208 135.069 19.6055C135.069 19.5684 135.069 19.5684 135.106 19.5315C135.106 19.4943 135.144 19.4574 135.144 19.4574C135.144 19.4202 135.144 19.4202 135.181 19.3833C135.294 19.1239 135.073 18.8625 134.813 18.861Z" fill="white"/>
<path d="M134.434 20.0483C133.876 20.1194 132.873 20.188 131.795 20.1818C130.718 20.1756 129.715 20.0956 129.158 20.0181C128.861 19.9792 128.602 19.792 128.492 19.5312C129.005 20.7602 130.263 21.6591 131.787 21.6679C133.31 21.6766 134.578 20.7922 135.105 19.5692C134.992 19.8657 134.731 20.05 134.434 20.0483Z" fill="#251011"/>
<path d="M134.367 18.9317L134.665 18.8963L134.367 18.9317C132.657 19.1449 130.911 19.1348 129.203 18.9021L128.906 18.8633L129.203 18.9021C130.948 19.1351 132.657 19.1449 134.367 18.9317Z" fill="#251011"/>
<path d="M128.42 19.4189C128.42 19.4563 128.457 19.4565 128.457 19.4938C128.457 19.4565 128.42 19.4189 128.42 19.4189C128.42 19.3816 128.42 19.4189 128.42 19.4189Z" fill="#251011"/>
<path d="M135.182 19.4582C135.182 19.4582 135.182 19.4209 135.182 19.4582C135.182 19.4582 135.182 19.4955 135.144 19.5327C135.144 19.4953 135.144 19.458 135.182 19.4582Z" fill="#251011"/>
<path d="M134.813 18.861L134.664 18.8602L134.367 18.8956C132.657 19.1087 130.91 19.0987 129.203 18.866L128.906 18.8272L128.757 18.8263C128.497 18.7877 128.273 19.0464 128.346 19.3069C128.345 19.3441 128.345 19.3441 128.382 19.3814C128.382 19.4186 128.419 19.456 128.419 19.456C128.419 19.4931 128.419 19.4931 128.456 19.5305C128.566 19.7912 128.825 19.9784 129.122 20.0173C129.679 20.0948 130.681 20.1748 131.759 20.181C132.836 20.1872 133.84 20.1186 134.397 20.0475C134.695 20.0121 134.956 19.8278 135.069 19.5684C135.069 19.5312 135.069 19.5312 135.106 19.4943C135.107 19.4572 135.144 19.4202 135.144 19.4202C135.144 19.3831 135.144 19.3831 135.182 19.3461C135.294 19.1239 135.073 18.8625 134.813 18.861Z" fill="white"/>
<path d="M131.787 21.7046C132.308 21.7076 132.791 21.5989 133.201 21.4154C133.129 21.0806 132.536 20.7799 131.793 20.7757C131.05 20.7714 130.454 21.0281 130.377 21.3992C130.785 21.5874 131.267 21.7016 131.787 21.7046Z" fill="#D00A6D"/>
<path opacity="0.6" d="M131.782 22.6325C130.779 22.6267 129.889 22.2129 129.336 21.541C129.777 22.3981 130.702 22.9978 131.78 23.004C132.857 23.0102 133.789 22.4211 134.24 21.5691C133.679 22.2347 132.785 22.6382 131.782 22.6325Z" fill="#F3BDA6"/>
<path d="M134.576 14.6985C134.579 14.1783 135.028 13.735 135.548 13.738C136.068 13.7409 136.512 14.1894 136.509 14.7096C136.506 15.2298 136.057 15.6731 135.537 15.6701C134.98 15.6669 134.573 15.2559 134.576 14.6985Z" fill="#251011"/>
<path d="M135.545 14.3324C135.546 14.1838 135.695 14.036 135.844 14.0369C135.993 14.0377 136.141 14.1872 136.14 14.3358C136.139 14.4844 135.989 14.6322 135.841 14.6314C135.655 14.6303 135.544 14.481 135.545 14.3324Z" fill="white"/>
<path d="M126.222 26.9849C126.371 26.9486 126.818 26.7282 126.818 26.7282L126.225 26.5762L126.222 26.9849Z" fill="#DBC796"/>
<path d="M136.995 27.0469C136.846 27.0089 136.401 26.7834 136.401 26.7834L136.997 26.6382L136.995 27.0469Z" fill="#DBC796"/>
<path d="M131.592 29.8016L126.221 26.9843C126.482 26.9115 126.817 26.7277 126.817 26.7277L126.224 26.5756L125.291 27.3134L125.286 28.0564L129.199 32.5372L131.592 29.8016Z" fill="#FFFEFB"/>
<path d="M126.221 26.9852C126.482 26.9124 126.817 26.7285 126.817 26.7285L126.223 26.5764C126.223 26.5764 126.186 26.6877 126.185 26.7992C126.147 26.9104 126.221 26.9852 126.221 26.9852Z" fill="#C5A7AE"/>
<path d="M131.593 29.8025L136.996 27.047C136.736 26.9712 136.403 26.7835 136.403 26.7835L136.998 26.6383L137.923 27.3867L137.919 28.1297L133.955 32.5654L131.593 29.8025Z" fill="#FFFEFB"/>
<path d="M136.997 26.6382L136.401 26.7834C136.401 26.7834 136.735 26.9711 136.995 27.0469C136.995 27.0469 137.106 26.9732 137.07 26.8244C137.071 26.7129 136.997 26.6382 136.997 26.6382Z" fill="#C5A7AE"/>
<path d="M67.6939 106.713L97.6971 129.029C100.768 131.313 104.4 132.82 108.186 133.399C112.901 134.094 117.198 136.348 120.447 139.822L137.692 158.2L144.521 165.967L179.816 166.17L179.985 136.634L137.661 105.294C131.631 100.838 127.695 94.0167 126.883 86.5814L126.494 83.0868C125.716 76.1718 123.451 69.5084 119.881 63.5806L118.225 60.8589C115.244 55.9004 113.083 50.4637 111.89 44.8096L111.021 40.7177C110.84 39.8622 109.915 39.3367 109.096 39.6293C107.122 40.361 105.59 41.987 104.984 43.9897L104.567 45.3992C103.999 47.3279 103.69 49.3324 103.678 51.3386L103.673 52.3417C103.664 53.9392 103.84 55.575 104.165 57.1373L107.024 70.5288L80.5888 60.866C74.0635 58.488 67.2359 56.9998 60.291 56.5142L46.9214 55.5459C45.5103 55.4263 44.1327 55.9385 43.0869 56.8985C41.4806 58.4126 41.0583 60.788 42.013 62.7626L42.5271 63.8058C43.2984 65.3707 44.7785 66.4194 46.4864 66.615L64.6798 68.6513C67.3902 68.964 70.0235 69.7594 72.4311 71.0364L65.3379 70.5127L55.7527 70.4578C53.5979 70.4454 51.4764 71.102 49.6856 72.3921C47.5592 73.9032 46.8741 76.76 48.0869 79.0705C49.0057 80.822 50.8571 81.91 52.8637 81.8472L63.7514 81.5381C65.6094 81.4745 67.4664 81.5966 69.3223 81.9044L71.8834 82.3278L59.7947 84.7477L52.0567 86.5239C50.4199 86.886 49.0389 87.9927 48.3243 89.5119C47.6098 90.9939 47.5998 92.7401 48.3341 94.2676L48.3339 94.3047C49.0315 95.7577 50.3256 96.8425 51.8837 97.2602L60.6753 99.6512C61.4173 99.8412 62.083 100.365 62.4878 101.036C63.813 103.199 65.5852 105.141 67.6939 106.713Z" fill="#FBD4BF"/>
<path d="M121.496 125.339C115.256 131.508 107.707 132.802 105.218 132.751C106.182 133.016 107.184 133.245 108.186 133.399C112.901 134.095 117.197 136.349 120.447 139.823L131.23 151.328C130.752 150.471 124.954 144.27 122.035 135.076C119.918 128.377 123.775 123.086 121.496 125.339Z" fill="#FAC9AF"/>
<path d="M130.737 114.246C138.609 108.495 156.788 119.56 156.899 119.56L137.661 105.295C131.631 100.839 127.695 94.0173 126.883 86.582C126.883 86.582 127.728 94.7234 128.425 102.641C128.985 108.812 129.095 115.426 130.737 114.246Z" fill="#FAC9AF"/>
<path d="M103.475 86.8928C106.98 78.0704 107.024 70.5286 107.024 70.5286L100.795 68.2637C102.864 70.319 102.205 81.6097 103.475 86.8928Z" fill="#FAC9AF"/>
<path d="M50.4595 67.0092L56.066 67.6358C56.1994 63.8098 56.5555 60.0222 56.7259 56.2335L49.8184 55.7109C52.2922 58.4001 52.0395 63.6001 50.4595 67.0092Z" fill="#FAC9AF"/>
<path d="M101.185 104.044C100.154 102.477 86.3217 97.9398 80.9071 96.2369C75.4925 94.5339 58.4486 86.4111 55.2945 85.7243L51.6113 86.5948C50.1968 87.0697 49.0391 88.1034 48.3627 89.437C47.6483 90.919 47.6383 92.6652 48.3726 94.1927L48.3724 94.2298C49.07 95.6828 50.3641 96.7676 51.9222 97.1853L60.7137 99.5763C61.4557 99.7663 62.1215 100.29 62.5263 100.961C63.851 103.198 65.623 105.177 67.7319 106.713L90.1141 123.374C89.0898 120.582 92.3976 107.412 101.185 104.044Z" fill="#FAC9AF"/>
<path d="M109.49 48.5487C109.89 49.9256 110.406 50.6345 111.817 50.7912C112.077 50.8298 112.857 50.9086 113.563 50.8755C112.868 48.9024 112.323 46.8559 111.889 44.7728L111.093 40.9786C108.558 42.4874 108.762 45.9066 109.49 48.5487Z" fill="#FCDCCB"/>
<path d="M68.6434 109.505C69.208 108.245 70.4019 107.36 71.7778 107.145L72.7818 107.003C75.0871 106.681 77.391 106.62 79.7305 106.819L81.2159 106.939C82.4413 107.058 83.5896 107.659 84.3269 108.666C85.2854 109.972 85.4613 111.682 84.7472 113.127L84.7469 113.164C84.1077 114.498 82.8392 115.42 81.3892 115.597L80.3109 115.74C77.7827 116.059 75.219 116.082 72.6942 115.807L71.9887 115.729C70.3179 115.534 68.9501 114.337 68.5135 112.737L68.4046 112.29C68.15 111.323 68.2299 110.357 68.6434 109.505Z" fill="#FBD4BF"/>
<path d="M84.7231 111.01L84.6526 110.341C84.5117 109.002 83.0309 108.065 81.4325 108.205L80.0942 108.346C78.9419 108.45 77.9358 108.965 77.2624 109.778C76.5514 110.666 76.5448 111.818 77.2455 112.713C77.8726 113.497 78.9099 114.023 80.0608 114.178L81.3974 114.335C82.9939 114.53 84.4855 113.572 84.6417 112.236L84.7199 111.567C84.7581 111.382 84.7592 111.196 84.7231 111.01Z" fill="#FCDCCB"/>
<path d="M99.1388 104.553L58.8289 104.322C56.4884 104.309 54.6045 102.403 54.6179 100.063L55.0831 18.9228C55.0966 16.5822 57.0022 14.6984 59.3427 14.7118L99.6526 14.9429C101.993 14.9563 103.877 16.8619 103.864 19.2025L103.398 100.342C103.385 102.683 101.479 104.567 99.1388 104.553Z" fill="#363538"/>
<path d="M53.9375 30.5449L53.9175 34.0377L54.995 34.0438L55.0151 30.5511L53.9375 30.5449Z" fill="#48484B"/>
<path d="M53.9023 36.9355L53.8823 40.4283L54.9599 40.4345L54.9799 36.9417L53.9023 36.9355Z" fill="#48484B"/>
<path d="M82.2018 19.4118L76.7405 19.3805C76.369 19.3784 76.0735 19.0794 76.0756 18.7079L76.0762 18.5965C76.0784 18.225 76.3773 17.9294 76.7488 17.9316L82.2102 17.9629C82.5817 17.965 82.8772 18.2639 82.8751 18.6355L82.8744 18.7469C82.8723 19.1184 82.5734 19.4139 82.2018 19.4118Z" fill="#1D1D1B"/>
<path d="M74.2927 18.6613C74.295 18.2526 73.9623 17.9534 73.5907 17.9513C73.182 17.949 72.8828 18.2817 72.8807 18.6532C72.8784 19.062 73.2111 19.3611 73.5827 19.3633C73.9542 19.3654 74.2905 19.0329 74.2927 18.6613Z" fill="#1D1D1B"/>
<path d="M79.0143 102.357C80.861 102.367 82.3666 100.879 82.3772 99.0324C82.3877 97.1857 80.8993 95.6802 79.0527 95.6696C77.206 95.659 75.7004 97.1474 75.6898 98.9941C75.6792 100.841 77.1677 102.346 79.0143 102.357Z" fill="#1D1D1B"/>
<path d="M79.8429 100.543L78.1709 100.533C77.7993 100.531 77.5038 100.232 77.5059 99.8605L77.5157 98.1512C77.5178 97.7797 77.8168 97.4841 78.1883 97.4863L79.8604 97.4958C80.232 97.498 80.5275 97.7969 80.5254 98.1685L80.5158 99.8405C80.5506 100.249 80.2145 100.545 79.8429 100.543ZM78.1854 98.0064C78.1111 98.006 78.0363 98.0799 78.0359 98.1542L78.0263 99.8263C78.0259 99.9006 78.0998 99.9753 78.1741 99.9758L79.8461 99.9853C79.9204 99.9858 79.9952 99.9119 79.9956 99.8376L80.0052 98.1655C80.0056 98.0912 79.9317 98.0165 79.8574 98.016L78.1854 98.0064Z" fill="#6F6F6E"/>
<path d="M49.6348 87.7004L48.6637 88.5865C47.5432 89.6203 46.9774 91.1032 47.1544 92.6275L47.2255 93.1852C47.5431 96.1222 49.4607 98.6224 52.2038 99.7156C53.0563 100.055 54.0236 99.8375 54.659 99.1724L55.1823 98.6181C57.238 96.475 57.4427 93.1695 55.6733 90.7444L54.8254 89.5878C53.9777 88.394 52.7192 87.5694 51.3092 87.2641C50.7156 87.1121 50.0829 87.2943 49.6348 87.7004Z" fill="#FBD4BF"/>
<path d="M55.6966 93.0844C55.6245 92.7125 53.6994 91.5125 53.6994 91.5125C52.737 90.8754 51.5866 90.6459 50.5822 90.8631C49.429 91.1165 48.6435 92.0408 48.5995 93.2295C48.5564 94.2695 48.9587 95.3864 49.8087 96.1715C50.4738 96.807 52.2851 98.4149 52.8813 98.1211C53.4029 97.864 53.1492 96.748 53.4142 95.895C53.9439 94.2261 55.8053 93.568 55.6966 93.0844Z" fill="#FCDCCB"/>
<path d="M49.7227 72.3182L48.7517 73.2043C47.6312 74.2382 47.0654 75.721 47.2424 77.2453L47.3135 77.803C47.631 80.74 49.5487 83.2402 52.2917 84.3334C53.1443 84.6726 54.1115 84.4553 54.747 83.7902L55.2703 83.2359C57.326 81.0928 57.5307 77.7873 55.7613 75.3622L54.9134 74.2056C54.0657 73.0118 52.8072 72.1872 51.3971 71.8819C50.8033 71.7671 50.1709 71.9121 49.7227 72.3182Z" fill="#FBD4BF"/>
<path d="M54.8539 78.2555C54.8189 77.8837 53.1543 76.611 53.1543 76.611C52.3036 75.9373 51.2653 75.597 50.2985 75.7401C49.183 75.8823 48.3982 76.6952 48.2434 77.7717C48.1264 78.737 48.3803 79.8159 49.0815 80.6373C49.6349 81.3092 51.2229 82.9902 51.7816 82.7334C52.2657 82.5504 52.1604 81.4723 52.4621 80.6939C53.1024 79.1742 54.9254 78.7389 54.8539 78.2555Z" fill="#FCDCCB"/>
<path d="M100.202 93.8216L57.8858 93.579C57.3285 93.5758 56.8481 93.1272 56.8515 92.5328L57.2245 27.4797C57.2277 26.9224 57.6763 26.442 58.2707 26.4454L100.587 26.688C101.144 26.6912 101.624 27.1398 101.621 27.7343L101.248 92.8245C101.245 93.3818 100.759 93.8248 100.202 93.8216Z" fill="#F8F4EF"/>
<path d="M56.9297 85.3633L56.8884 92.5708C56.8852 93.128 57.3282 93.6136 57.9227 93.617L100.239 93.8596C100.796 93.8628 101.282 93.4198 101.285 92.8253L101.326 85.6178L56.9297 85.3633Z" fill="#02B4BB"/>
<path d="M101.56 38.434L101.621 27.7343C101.624 27.177 101.181 26.6915 100.587 26.688L58.2707 26.4454C57.7134 26.4422 57.2279 26.8853 57.2245 27.4797L57.1632 38.1795L101.56 38.434Z" fill="#02B4BB"/>
<path d="M66.5026 35.7061C68.4519 35.7172 70.0411 34.1461 70.0523 32.1969C70.0635 30.2476 68.4924 28.6584 66.5431 28.6472C64.5939 28.636 63.0046 30.2071 62.9934 32.1564C62.9823 34.1056 64.5534 35.6949 66.5026 35.7061Z" fill="#363538"/>
<path d="M69.1482 34.2725C69.1482 34.2725 68.147 33.9324 67.7763 33.7816C67.5169 33.6687 67.332 33.519 67.3335 33.2589C67.3709 33.222 67.4085 33.1479 67.4458 33.111L67.7082 32.7038C67.8581 32.4817 67.9339 32.2221 67.9725 31.9622C68.0468 31.9627 68.0844 31.8886 68.1218 31.8516L68.2725 31.481C68.3103 31.3697 68.274 31.2209 68.1256 31.1829C68.0887 31.1455 68.0144 31.1451 67.977 31.182L67.9806 30.5505C67.9819 30.3275 68.0594 29.7707 67.7263 29.5459C67.2083 29.1714 66.1314 29.0909 65.8685 29.5724C65.0147 29.456 65.011 30.0876 65.0081 30.6077L65.042 31.1652C65.0049 31.165 65.0049 31.165 64.9677 31.1648C64.8558 31.2385 64.7809 31.3495 64.8174 31.4611L64.9639 31.8335C65.0006 31.908 65.0375 31.9454 65.1118 31.9458C65.1475 32.2061 65.2203 32.4666 65.3676 32.6904L65.6254 33.1005C65.6621 33.175 65.736 33.2498 65.8101 33.2873C65.7716 33.51 65.585 33.6576 65.3615 33.7678C64.9891 33.9142 63.9098 34.2424 63.9098 34.2424C63.3514 34.425 62.9769 34.943 62.9735 35.5374L62.9725 35.7232L70.0685 35.7639L70.0695 35.5781C70.073 34.9837 69.7044 34.4614 69.1482 34.2725Z" fill="white"/>
<path d="M93.897 91.8901L65.8472 91.7293C65.1413 91.7253 64.5503 91.1274 64.5544 90.4215L64.5648 88.6011C64.5689 87.8952 65.1667 87.3042 65.8726 87.3082L93.9223 87.4691C94.6282 87.4731 95.2192 88.0709 95.2152 88.7768L95.2047 90.5973C95.2005 91.3403 94.6028 91.8942 93.897 91.8901Z" fill="#A7E5E7"/>
<path d="M83.768 44.4613L62.9258 44.3418L62.9115 46.831L83.7538 46.9505L83.768 44.4613Z" fill="#5C5C5F"/>
<path d="M97.2132 64.3418L62.8105 64.1445L62.7963 66.6337L97.199 66.831L97.2132 64.3418Z" fill="#5C5C5F"/>
<path d="M77.7925 49.4057L62.8945 49.3203L62.8803 51.8095L77.7782 51.8949L77.7925 49.4057Z" fill="#5C5C5F"/>
<path d="M82.632 54.4122L62.8672 54.2988L62.8529 56.788L82.6177 56.9013L82.632 54.4122Z" fill="#5C5C5F"/>
<path d="M83.6801 59.434L62.8379 59.3145L62.8236 61.8036L83.6659 61.9231L83.6801 59.434Z" fill="#5C5C5F"/>
<path d="M97.1879 68.725L76.3457 68.6055L76.3314 71.0946L97.1737 71.2141L97.1879 68.725Z" fill="#898B8E"/>
<path d="M97.1964 73.74L79.1777 73.6367L79.1635 76.1259L97.1822 76.2292L97.1964 73.74Z" fill="#898B8E"/>
<path d="M96.5012 32.8692C96.5039 32.3862 96.0975 31.9751 95.5774 31.9721C95.0572 31.9691 94.6461 32.3755 94.6433 32.8586C94.6406 33.3416 95.0469 33.7527 95.5671 33.7557C96.0875 33.7215 96.4984 33.3523 96.5012 32.8692Z" fill="#3C3C3B"/>
<path d="M97.8478 31.3155L96.6218 31.3085L96.4015 30.8614C96.3647 30.7868 96.2537 30.7119 96.1423 30.7113L95.585 30.7081L95.0277 30.7049C94.9162 30.7042 94.8415 30.7781 94.7668 30.852L94.5413 31.2965L94.1326 31.2942L94.1335 31.1456C94.1337 31.1084 94.097 31.0339 94.0227 31.0335L93.6512 31.0313C93.5768 31.0309 93.5395 31.0679 93.5391 31.1422L93.5382 31.2908L93.3153 31.2895C93.1667 31.2886 93.0172 31.4364 93.0164 31.585L93.0021 34.0742C93.0012 34.2228 93.149 34.3723 93.2976 34.3731L97.8302 34.3991C97.9788 34.3999 98.1282 34.2522 98.1291 34.1036L98.1434 31.6144C98.1814 31.466 98.0336 31.3165 97.8478 31.3155ZM95.566 34.0146C94.8973 34.0107 94.343 33.4874 94.3468 32.8187C94.3504 32.1871 94.9109 31.633 95.5796 31.6369C96.2484 31.6407 96.8027 32.164 96.7988 32.8327C96.795 33.5015 96.2348 34.0184 95.566 34.0146ZM96.9524 31.9791C96.878 31.9787 96.8042 31.9039 96.8046 31.8296C96.805 31.7553 96.8798 31.6815 96.9541 31.6819C97.0284 31.6823 97.1022 31.757 97.1018 31.8313C97.1014 31.9057 97.0267 31.9795 96.9524 31.9791Z" fill="#3C3C3B"/>
<path d="M89.714 31.0482C90.1943 31.534 90.1898 32.3143 89.704 32.7946C89.2182 33.2748 88.4379 33.2704 87.9576 32.7846C87.4773 32.2988 87.4818 31.5185 87.9676 31.0382C88.4163 30.5577 89.2337 30.5624 89.714 31.0482Z" stroke="#363538" stroke-width="0.5" stroke-miterlimit="10"/>
<path d="M87.92 32.7843L86.3502 34.3731" stroke="#363538" stroke-width="0.5" stroke-miterlimit="10" stroke-linecap="round"/>
<path d="M82.868 32.606L82.1207 33.3448C81.9712 33.4925 81.7111 33.491 81.5634 33.3416L81.4526 33.2295C81.3048 33.08 81.3063 32.82 81.4558 32.6722L82.7262 31.4163C82.9504 31.1947 83.3219 31.1968 83.5435 31.421L83.8021 31.6825C84.0237 31.9067 84.0216 32.2782 83.7974 32.4999L82.0786 34.1991C81.817 34.4576 81.4084 34.4553 81.1498 34.1937L80.6327 33.6706C80.3741 33.4091 80.3764 33.0004 80.638 32.7418L82.7678 30.6363" stroke="#363538" stroke-width="0.5" stroke-miterlimit="10" stroke-linecap="round"/>
<path d="M70.199 78.1936L69.5315 77.9668C66.5258 77.318 64.2113 79.2367 63.1545 82.1286L56.6984 100.074L50.0332 115.603L48.1118 113.771C46.0056 111.753 43.1133 110.77 40.2135 111.088L38.5035 111.264C37.0163 111.441 35.4948 111.135 34.1614 110.422L32.3834 109.483C31.05 108.769 29.5281 108.537 28.0776 108.789L25.7345 109.222C24.8046 109.402 23.8756 109.434 22.9468 109.429L21.424 109.345C16.9295 109.171 12.7914 111.637 10.8732 115.712C10.8732 115.712 1.61119 143.524 1.45619 144.638C1.22412 146.234 1.28927 147.832 1.68899 149.395L2.56083 152.855C3.10575 155.013 3.01824 157.316 2.26306 159.43L0.000925364 165.175L43.3944 165.424C49.5765 162.859 54.5826 158.058 57.367 151.943L61.8819 142.086C63.8005 137.936 63.4566 133.104 60.9522 129.263L60.2893 128.256L66.8125 105.073L72.7608 84.9701C73.6345 81.6314 72.9055 79.1751 70.199 78.1936Z" fill="#FBD4BF"/>
<path d="M60.3269 128.256C60.1766 128.552 58.7207 136.235 53.3452 147.164C50.2249 153.537 58.7814 138.613 62.4864 140.418C63.6224 136.672 63.0886 132.582 60.9527 129.263L60.3269 128.256Z" fill="#FAC9AF"/>
<path d="M26.7123 165.328L33.2511 165.365C30.7645 164.905 27.7592 164.182 24.1621 163.01C23.235 162.707 24.6043 163.644 26.7123 165.328Z" fill="#FAC9AF"/>
<path d="M50.0328 115.641C50.0328 115.641 45.3666 113.013 41.6843 113.735C39.1178 114.241 36.625 114.858 34.2556 113.395C30.4424 111.033 26.1223 112.829 23.5659 111.588C20.6022 110.085 16.4393 110.395 15.0982 111.019C16.9624 109.878 19.158 109.259 21.4236 109.384L22.9464 109.467C23.875 109.509 24.8043 109.44 25.7341 109.26L28.0772 108.827C29.5648 108.576 31.0868 108.807 32.383 109.521L33.5796 108.19C34.8882 106.749 36.787 106.054 38.7176 106.288L41.2794 106.6L43.7451 104.236C45.015 103.054 46.5803 102.209 48.2541 101.884C50.3369 101.487 52.4877 102.205 53.8905 103.774L54.7027 104.67L50.0328 115.641Z" fill="#FAC9AF"/>
<path d="M13.5979 158.862C15.2287 159.54 3.27306 158.208 0.453006 164.063L2.26314 159.392C3.01832 157.278 3.10583 154.975 2.56091 152.817L1.68907 149.357C1.47063 148.575 1.36365 147.795 1.33097 147.014C1.72473 149.617 7.26003 156.188 13.5979 158.862Z" fill="#FAC9AF"/>
<path d="M69.4156 78.8201L68.5993 78.6297C67.1523 78.287 65.6609 79.2073 65.3554 80.6545L65.0878 81.9533C64.8587 83.0295 65.1124 84.1455 65.776 85.041C66.5135 86.0112 67.8113 86.4645 69.0019 86.1741C70.0808 85.9202 70.9767 85.1823 71.4652 84.2191L72.0664 83.0336C72.7428 81.7 72.1949 80.0621 70.8239 79.4227L70.0459 79.0467C69.8236 78.9339 69.6383 78.8586 69.4156 78.8201Z" fill="#FCDCCB"/>
</g>
<defs>
<clipPath id="clip0">
<rect width="179.818" height="165.18" fill="white" transform="translate(0.947266) rotate(0.328511)"/>
</clipPath>
</defs>
</svg>
